<?xml version="1.0" encoding="UTF-8" standalone="no"?>
<!-- Created with Inkscape (http://www.inkscape.org/) -->

<svg
   width="89.905991mm"
   height="58.155998mm"
   viewBox="0 0 89.905991 58.155998"
   version="1.1"
   id="svg5"
   inkscape:version="1.1.1 (3bf5ae0d25, 2021-09-20, custom)"
   sodipodi:docname="stdlib-logo.svg"
   xmlns:inkscape="http://www.inkscape.org/namespaces/inkscape"
   xmlns:sodipodi="http://sodipodi.sourceforge.net/DTD/sodipodi-0.dtd"
   xmlns="http://www.w3.org/2000/svg"
   xmlns:svg="http://www.w3.org/2000/svg">
  <sodipodi:namedview
     id="namedview7"
     pagecolor="#ffffff"
     bordercolor="#666666"
     borderopacity="1.0"
     inkscape:pageshadow="2"
     inkscape:pageopacity="0.0"
     inkscape:pagecheckerboard="0"
     inkscape:document-units="mm"
     showgrid="false"
     inkscape:snap-bbox="true"
     inkscape:snap-bbox-midpoints="true"
     inkscape:zoom="1.5312179"
     inkscape:cx="111.34927"
     inkscape:cy="123.10462"
     inkscape:window-width="1920"
     inkscape:window-height="1020"
     inkscape:window-x="0"
     inkscape:window-y="32"
     inkscape:window-maximized="1"
     inkscape:current-layer="g6437" />
  <defs
     id="defs2" />
  <g
     inkscape:label="Layer 1"
     inkscape:groupmode="layer"
     id="layer1"
     transform="translate(-45.246474,-105.6435)">
    <g
       id="g6440"
       style="fill:#ffffff;fill-opacity:1">
      <path
         id="rect1034"
         style="fill:#ffffff;stroke:#4e52a3;stroke-width:1.406;fill-opacity:1"
         d="m 113.76582,138.0965 h 16.36728 c 2.39127,0 4.31636,1.92509 4.31636,4.31636 v 16.36728 c 0,2.39126 -1.92509,4.31636 -4.31636,4.31636 h -16.36728 c -2.39126,0 -4.31636,-1.9251 -4.31636,-4.31636 v -16.36728 c 0,-2.39127 1.9251,-4.31636 4.31636,-4.31636 z" />
    </g>
    <g
       id="g6443"
       style="fill:#ffffff;fill-opacity:1">
      <path
         id="rect1036"
         style="fill:#ffffff;stroke:#eab90c;stroke-width:1.406;fill-opacity:1"
         d="m 82.015838,138.0965 h 16.367281 c 2.391261,0 4.316361,1.92509 4.316361,4.31636 v 16.36728 c 0,2.39126 -1.9251,4.31636 -4.316361,4.31636 H 82.015838 c -2.391264,0 -4.31636,-1.9251 -4.31636,-4.31636 v -16.36728 c 0,-2.39127 1.925096,-4.31636 4.31636,-4.31636 z" />
    </g>
    <g
       id="g6433">
      <path
         id="rect1030"
         style="fill:#ffffff;stroke:#a34e9c;stroke-width:1.406;fill-opacity:1"
         d="m 82.01583,106.3465 h 16.367281 c 2.391259,0 4.316359,1.92509 4.316359,4.31636 v 16.36728 c 0,2.39126 -1.9251,4.31636 -4.316359,4.31636 H 82.01583 c -2.391263,0 -4.316359,-1.9251 -4.316359,-4.31636 v -16.36728 c 0,-2.39127 1.925096,-4.31636 4.316359,-4.31636 z" />
      <path
         d="m 87.684885,122.61026 v -6.11436 h -1.874133 v -1.55787 q 1.604726,-0.26941 2.366093,-1.31189 0.773079,-1.0542 0.913639,-3.25631 h 1.534446 v 4.46278 h 3.127459 v 1.66329 h -3.174312 v 6.45405 q 0,0.83165 0.187413,1.12448 0.187414,0.28112 0.679374,0.28112 0.609093,0 0.843359,-0.57395 0.234267,-0.57396 0.234267,-2.34267 v -0.63252 h 1.557873 q 0.01171,0.18741 0.01171,0.40997 0.01171,0.22255 0.01171,0.6208 0,2.49494 -0.819933,3.61942 -0.808219,1.11277 -2.623786,1.11277 -1.557872,0 -2.272386,-0.94878 -0.702799,-0.94878 -0.702799,-3.01033 z"
         style="font-weight:600;font-size:23.9889px;line-height:1.05;font-family:'Source Sans Pro';-inkscape-font-specification:'Source Sans Pro Semi-Bold';letter-spacing:21.1667px;fill:#a34e9c;stroke-width:0.264583"
         id="path5812" />
    </g>
    <g
       id="g6429">
      <path
         id="rect846"
         style="fill:#ffffff;stroke:#c96d57;stroke-width:1.406;fill-opacity:1"
         d="m 50.265834,106.3465 h 16.367281 c 2.391263,0 4.316359,1.92509 4.316359,4.31636 v 16.36728 c 0,2.39126 -1.925096,4.31636 -4.316359,4.31636 H 50.265834 c -2.391263,0 -4.31636,-1.9251 -4.31636,-4.31636 v -16.36728 c 0,-2.39127 1.925097,-4.31636 4.31636,-4.31636 z" />
      <path
         d="m 53.047855,126.29996 v -4.62676 h 1.757 q 0.339686,1.54616 1.323606,2.36609 0.995633,0.81993 2.494939,0.81993 0.91364,0 1.464166,-0.39825 0.550527,-0.40997 0.550527,-1.08934 0,-0.53881 -0.445107,-0.86679 -0.445106,-0.33968 -1.569586,-0.6208 l -1.780426,-0.42168 q -1.862419,-0.45682 -2.764346,-1.3119 -0.901926,-0.86678 -0.901926,-2.19039 0,-1.59301 1.206473,-2.57693 1.206473,-0.98392 3.186026,-0.98392 0.937066,0 1.780426,0.29283 0.843359,0.28112 1.639866,0.86679 l 0.5271,-0.89022 h 1.370459 v 4.19338 h -1.628153 q -0.363113,-1.30018 -1.288466,-2.02641 -0.925353,-0.72623 -2.213819,-0.72623 -0.855073,0 -1.347033,0.36312 -0.480247,0.3514 -0.480247,0.98392 0,0.45682 0.327974,0.76136 0.327973,0.29284 1.019059,0.45682 l 2.17868,0.50368 q 2.108399,0.50367 3.068892,1.39388 0.960493,0.89022 0.960493,2.31924 0,1.71015 -1.218186,2.69407 -1.218187,0.98392 -3.361726,0.98392 -1.065913,0 -1.967839,-0.30455 -0.901927,-0.29283 -1.86242,-0.97221 l -0.433393,1.00735 z"
         style="font-weight:600;font-size:23.9889px;line-height:1.05;font-family:'Source Sans Pro';-inkscape-font-specification:'Source Sans Pro Semi-Bold';letter-spacing:21.1667px;fill:#c96d57;stroke-width:0.264583"
         id="path5810" />
    </g>
    <g
       id="g6437">
      <path
         id="rect1032"
         style="fill:#ffffff;stroke:#388c96;stroke-width:1.406;fill-opacity:1"
         d="m 113.76582,106.3465 h 16.36728 c 2.39127,0 4.31636,1.92509 4.31636,4.31636 v 16.36728 c 0,2.39126 -1.92509,4.31636 -4.31636,4.31636 h -16.36728 c -2.39126,0 -4.31636,-1.9251 -4.31636,-4.31636 v -16.36728 c 0,-2.39127 1.9251,-4.31636 4.31636,-4.31636 z" />
      <path
         d="m 119.03117,120.52529 q 0,2.03812 0.67938,3.04547 0.67937,1.00734 2.06154,1.00734 1.26504,0 1.99127,-1.07762 0.73794,-1.07763 0.73794,-2.97519 0,-1.89756 -0.73794,-2.96347 -0.72623,-1.06592 -1.99127,-1.06592 -1.39388,0 -2.07326,0.99564 -0.66766,0.99563 -0.66766,3.03375 z m 5.47013,-7.41454 q 0,-0.92535 -0.28112,-1.18304 -0.26941,-0.2577 -1.08934,-0.2577 h -1.00735 v -1.60472 h 5.28271 v 13.04865 q 0,0.92535 0.26941,1.18304 0.28112,0.25769 1.10105,0.25769 h 0.69109 v 1.60473 h -4.96645 v -1.96784 q -0.58567,1.18305 -1.53445,1.74529 -0.93706,0.56224 -2.33095,0.56224 -2.29581,0 -3.58428,-1.5813 -1.27675,-1.59301 -1.27675,-4.46278 0,-2.86977 1.27675,-4.46278 1.28847,-1.59301 3.58428,-1.59301 1.38217,0 2.31924,0.57395 0.94878,0.56224 1.54616,1.757 z"
         style="font-weight:600;font-size:23.9889px;line-height:1.05;font-family:'Source Sans Pro';-inkscape-font-specification:'Source Sans Pro Semi-Bold';letter-spacing:21.1667px;fill:#388c96;stroke-width:0.264583"
         id="path5814" />
    </g>
    <path
       id="rect1038"
       style="font-weight:600;font-size:23.9889px;line-height:1.05;font-family:'Source Sans Pro';-inkscape-font-specification:'Source Sans Pro Semi-Bold';letter-spacing:21.1667px;fill:#ffffff;stroke:#6f6f91;stroke-width:1.406;fill-opacity:1"
       d="m 50.265837,138.0965 h 16.367281 c 2.391263,0 4.316359,1.92509 4.316359,4.31636 v 16.36728 c 0,2.39126 -1.925096,4.31636 -4.316359,4.31636 H 50.265837 c -2.391264,0 -4.31636,-1.9251 -4.31636,-4.31636 v -16.36728 c 0,-2.39127 1.925096,-4.31636 4.31636,-4.31636 z" />
    <path
       d="m 57.135151,145.48948 q 0,-0.91364 -0.28112,-1.17133 -0.269407,-0.26941 -1.112766,-0.26941 h -0.714514 v -1.60472 h 5.036732 v 13.04865 q 0,0.91364 0.28112,1.18304 0.28112,0.2577 1.112766,0.2577 h 0.714514 v 1.60472 h -7.145132 v -1.60472 h 0.714514 q 0.843359,0 1.112766,-0.2577 0.28112,-0.2694 0.28112,-1.18304 z"
       style="font-weight:600;font-size:23.9889px;line-height:1.05;font-family:'Source Sans Pro';-inkscape-font-specification:'Source Sans Pro Semi-Bold';letter-spacing:23.8125px;fill:#6f6f91;stroke-width:0.264583"
       id="path5803" />
    <path
       d="m 87.085435,158.53813 v -1.60472 h 0.890213 q 0.819934,0 1.08934,-0.2577 0.28112,-0.25769 0.28112,-1.18304 v -5.23586 q 0,-0.92536 -0.28112,-1.17134 -0.269406,-0.25769 -1.08934,-0.25769 h -0.890213 v -1.61644 h 5.189005 v 8.28133 q 0,0.91364 0.269407,1.18304 0.28112,0.2577 1.112766,0.2577 h 0.726227 v 1.60472 z m 1.733573,-14.51281 q 0,-0.74966 0.503673,-1.26504 0.515387,-0.51539 1.26504,-0.51539 0.761366,0 1.276753,0.51539 0.5271,0.51538 0.5271,1.26504 0,0.74965 -0.5271,1.27675 -0.515387,0.5271 -1.276753,0.5271 -0.73794,0 -1.253326,-0.5271 -0.515387,-0.5271 -0.515387,-1.27675 z"
       style="font-weight:600;font-size:23.9889px;line-height:1.05;font-family:'Source Sans Pro';-inkscape-font-specification:'Source Sans Pro Semi-Bold';letter-spacing:21.1667px;fill:#eab90c;stroke-width:0.264583"
       id="path5805" />
    <path
       d="m 126.33752,152.90402 q 0,-2.03812 -0.67938,-3.03375 -0.66766,-0.99564 -2.04983,-0.99564 -1.27675,0 -2.00298,1.06592 -0.72622,1.06591 -0.72622,2.96347 0,1.89756 0.72622,2.97519 0.73794,1.07762 2.00298,1.07762 1.38217,0 2.04983,-1.00734 0.67938,-1.00735 0.67938,-3.04547 z m -5.82153,4.16995 -0.96049,1.5813 h -1.5813 v -13.16579 q 0,-0.92535 -0.26941,-1.18304 -0.2694,-0.2577 -1.10105,-0.2577 h -0.50367 v -1.60472 h 4.77904 v 6.54775 q 0.66765,-1.14791 1.60472,-1.67501 0.94878,-0.53881 2.29581,-0.53881 2.22554,0 3.52572,1.62815 1.30018,1.61644 1.30018,4.42764 0,2.8112 -1.32361,4.46278 -1.32361,1.65158 -3.57257,1.65158 -1.28846,0 -2.31924,-0.45682 -1.03077,-0.45682 -1.87413,-1.41731 z"
       style="font-weight:600;font-size:23.9889px;line-height:1.05;font-family:'Source Sans Pro';-inkscape-font-specification:'Source Sans Pro Semi-Bold';letter-spacing:21.1667px;fill:#4e52a3;stroke-width:0.264583"
       id="path5807" />
  </g>
</svg>
